# xmcd
#
# Track frame offsets:
#	150
#	43892
#	75916
#	104241
#	134763
#
# Disc length: 2261 seconds
#
# Revision: 1
# Processed by: cddbd v1.5.2PL0 Copyright (c) Steve Scherf et al.
# Submitted via: audiograbber 1.83.01
#
DISCID=4408d305
DTITLE=Grateful Dead - 74-05-25 Campus Stadium, University of California, Santa
DTITLE=Barbara CA
DYEAR=1900
DGENRE=
TTITLE0=Sugar Magnolia
TTITLE1=Going Down The Road Feeling Bad
TTITLE2=One More Saturday Night
TTITLE3=Casey Jones
TTITLE4=Casey Jones
EXTD=
EXTT0=
EXTT1=
EXTT2=
EXTT3=
EXTT4=
PLAYORDER=
